<?xml version="1.0" ?><!DOCTYPE svg  PUBLIC '-//W3C//DTD SVG 1.1//EN'  'http://www.w3.org/Graphics/SVG/1.1/DTD/svg11.dtd'><svg xmlns="http://www.w3.org/2000/svg" xmlns:xlink="http://www.w3.org/1999/xlink"><symbol viewBox="0 0 1792 1792" id="exchange" xmlns="http://www.w3.org/2000/svg"><path d="M1792 1184v192q0 13-9.5 22.5t-22.5 9.5H384v192q0 13-9.5 22.5T352 1632q-12 0-24-10L9 1302q-9-9-9-22 0-14 9-23l320-320q9-9 23-9 13 0 22.5 9.5T384 960v192h1376q13 0 22.5 9.5t9.5 22.5zm0-544q0 14-9 23l-320 320q-9 9-23 9-13 0-22.5-9.5T1408 960V768H32q-13 0-22.5-9.5T0 736V544q0-13 9.5-22.5T32 512h1376V320q0-14 9-23t23-9q12 0 24 10l319 319q9 9 9 23z"/></symbol><symbol viewBox="0 0 48 48" id="fee" xmlns="http://www.w3.org/2000/svg"><path d="M29.326 19.476c-.276.278-.306.648-.084 1.113.217.464.682 1.046 1.391 1.746.708.698 1.298 1.158 1.77 1.377.475.218.849.186 1.123-.092.529-.535.09-1.497-1.316-2.884-1.397-1.376-2.358-1.797-2.884-1.26z"/><path d="M28.075-.003L0 28.076 19.927 48l28.076-28.078V.003L28.075-.003zm-6.178 29.096c-.906.922-1.94 1.308-3.097 1.154-1.155-.148-2.359-.84-3.608-2.073-2.549-2.516-2.875-4.736-.975-6.66.929-.943 1.974-1.34 3.133-1.193 1.159.147 2.353.827 3.582 2.038 1.282 1.266 2.001 2.465 2.156 3.596.153 1.134-.244 2.18-1.191 3.138zm4.622 4.773l-5.537-18.857L22.964 13l5.535 18.86-1.98 2.006zm8.715-8.527c-.909.919-1.942 1.308-3.099 1.154-1.156-.149-2.357-.837-3.602-2.065-2.549-2.516-2.874-4.736-.976-6.662.931-.942 1.976-1.34 3.136-1.192 1.157.147 2.353.826 3.579 2.037 1.278 1.26 1.993 2.459 2.148 3.59.156 1.133-.239 2.18-1.186 3.138zm7.438-15.787a2.992 2.992 0 0 1-4.225.002 2.996 2.996 0 0 1-.002-4.228 2.993 2.993 0 0 1 4.227-.002 2.985 2.985 0 0 1 0 4.228z"/><path d="M15.982 23.221c-.277.28-.305.652-.084 1.115.218.464.683 1.046 1.391 1.747.708.699 1.298 1.157 1.771 1.375.472.22.848.19 1.123-.09.526-.535.089-1.497-1.316-2.885-1.396-1.376-2.358-1.795-2.885-1.262z"/></symbol><symbol viewBox="0 0 48 48" id="unlock" xmlns="http://www.w3.org/2000/svg"><circle cx="24" cy="30" r="2"/><path d="M24 38a1 1 0 0 1-1-1v-6a1 1 0 1 1 2 0v6a1 1 0 0 1-1 1z"/><path d="M42 48H6V18h36v30zM8 46h32V20H8v26z"/><path d="M36 19h-2v-7c0-5.514-4.486-10-10-10S14 6.486 14 12h-2c0-6.617 5.383-12 12-12s12 5.383 12 12v7z"/></symbol></svg>