
<?xml version="1.0" ?><svg id="Layer_1" style="enable-background:new 0 0 512 512;" version="1.1" viewBox="0 0 512 512" xml:space="preserve" xmlns="http://www.w3.org/2000/svg" xmlns:xlink="http://www.w3.org/1999/xlink"><g><path class="st0" d="M392.7,280.4C393.1,280.1,392.3,280.8,392.7,280.4"/><path class="st0" d="M405.2,267.1c3.8-4.6,7.2-9.7,9.8-14.9c17.5-34.9,9.6-74-19.6-100.1c-27.7-24.9-72.6-27.2-102.1-4.6   c-9.9,7.6-18.4,16.9-27.5,25.5c-5.9,5.6-11.6,5.7-17.4,0c-5.4-5.3-10.7-10.8-16.2-16.1c-31-30.5-76.1-33.9-110.3-7.6   c-15.6,12-25.4,27.1-29.6,44.9"/><path class="st0" d="M90.1,213.9c0,0.4,0,0.7,0,1.1c0,23.3,9.2,43.1,25.7,59.6c46.2,46.1,92.3,92.2,138.4,138.3   c0.9,0.9,1.8,1.7,2.8,2.6c0.9-0.8,1.8-1.5,2.5-2.3c39.9-39.7,79.8-79.3,119.5-119.1"/></g></svg>
