
<svg baseProfile="tiny" height="32px" version="1.1" viewBox="0 0 32 32" width="32px" xml:space="preserve" xmlns="http://www.w3.org/2000/svg" xmlns:xlink="http://www.w3.org/1999/xlink"><g id="Guides__x26__Forms"/><g id="Icons"><g><path d="M23,14v-2c0-3.866-3.134-7-7-7s-7,3.134-7,7v2H7v13h18V14H23z M11,12c0-2.757,2.243-5,5-5c2.757,0,5,2.243,5,5v2H11V12z     M23,25H9v-9h14V25z"/><path d="M15,20.611V23h2v-2.389c0.305-0.275,0.5-0.668,0.5-1.111c0-0.828-0.672-1.5-1.5-1.5s-1.5,0.672-1.5,1.5    C14.5,19.943,14.695,20.336,15,20.611z"/></g></g></svg>
