
<svg enable-background="new 0 0 48 48" height="48px" version="1.1" viewBox="0 0 48 48" width="48px" xml:space="preserve" xmlns="http://www.w3.org/2000/svg" xmlns:xlink="http://www.w3.org/1999/xlink"><g id="Expanded"><g><g><circle cx="24" cy="30" r="2"/></g><g><path d="M24,38c-0.553,0-1-0.447-1-1v-6c0-0.553,0.447-1,1-1s1,0.447,1,1v6C25,37.553,24.553,38,24,38z"/></g><g><path d="M42,48H6V18h36V48z M8,46h32V20H8V46z"/></g><g><path d="M36,19h-2v-7c0-5.514-4.486-10-10-10S14,6.486,14,12h-2c0-6.617,5.383-12,12-12s12,5.383,12,12V19z"/></g></g></g></svg>
